<svg xmlns="http://www.w3.org/2000/svg" xml:space="preserve" viewBox="0 0 300.6 400.2">
  <path d="M94.5 8.6c11.8-4.2 23.4 1 27.6 12.8 3.4 9.6 27.9 82.6 41.8 123.9.9 2.3 2.5 2.9 4.4 2.5 1.9-.4 3.1-1.4 2.7-3.8L155.7 23.2c-1.5-11.6 6.5-21.5 18.1-23 11.9-1.5 21.9 6.6 23.4 17.6l16.8 120c.4 3.1 1.8 3.5 3.4 3.5 3.2-.7 3.2-1.9 3.5-3.5l13.8-76.2c2.1-12.3 12.1-20.1 21.6-18.8 11.9 1.6 17.8 11.1 16.8 22.5-2.4 27.8-7.5 83.4-7.5 83.4-2.2 24.1 1.6 41.4 6.6 58.5 4.9 17.1 11.2 34.1 13 56.4 1 12.5-.7 24.6 5.9 41.5l6.2 15.9c6.4 16.4 3.3 32.6-5.1 45.2-8.4 12.7-21.8 22.3-36.7 28.1-14.8 5.8-31.2 7.7-46 4.1-14.7-3.7-27.8-13.5-34.2-29.9L162.6 336c-2-4.9-6.6-11.9-12.7-15-9.1-4.5-17.2-4.9-26.9-6.7-36.4-6.7-68.2-37.2-105.1-55.6C5.7 253.1-1 243.8.1 234.3c1.2-9.5 10.8-17.7 22.5-19.4 27-3.7 47.4 6.9 63.6 16.1 2.3 1.3 5.6 2.3 7 1 .5-11.5-1.1-21.1-9.2-36.3l-62.7-118c-5.2-12.6-1.6-22.3 8.3-28.4 10.6-6.5 22.6-1.9 28.7 8.2 5.1 8.6 39 67.6 58.6 101.4 2.8 5 8 .8 6.9-2.2L80.4 34.8C76 22.5 82.8 12.7 94.5 8.6z"/>
</svg>
