<?xml version="1.0" encoding="utf-8"?>
<!-- Generator: Adobe Illustrator 26.1.0, SVG Export Plug-In . SVG Version: 6.00 Build 0)  -->
<svg version="1.1" id="Layer_1" xmlns="http://www.w3.org/2000/svg" xmlns:xlink="http://www.w3.org/1999/xlink" x="0px" y="0px"
	 viewBox="0 0 681.1 681.1" style="enable-background:new 0 0 681.1 681.1;" xml:space="preserve">
<style type="text/css">
	.st0{fill:#FFFFFF;}
</style>
<image style="display:none;overflow:visible;" width="2000" height="2001" xlink:href="../../../Downloads/Sela SE-205-2.jpeg"  transform="matrix(-0.3838 0 0 -0.3838 725.0063 723.7055)">
</image>
<g id="Border">
	<g>
		<path class="st0" d="M340.6,680.6c-90.8,0-176.2-35.4-240.5-99.6C35.9,516.8,0.5,431.4,0.5,340.6c0-90.8,35.4-176.2,99.6-240.5
			C164.3,35.9,249.7,0.5,340.6,0.5c90.8,0,176.2,35.4,240.5,99.6c64.2,64.2,99.6,149.6,99.6,240.5c0,90.8-35.4,176.2-99.6,240.5
			C516.8,645.3,431.4,680.6,340.6,680.6z"/>
		<path d="M340.6,1c45.8,0,90.3,9,132.2,26.7c40.4,17.1,76.7,41.6,107.9,72.8c31.2,31.2,55.7,67.5,72.8,107.9
			c17.7,41.9,26.7,86.3,26.7,132.2s-9,90.3-26.7,132.2c-17.1,40.4-41.6,76.7-72.8,107.9c-31.2,31.2-67.5,55.7-107.9,72.8
			c-41.9,17.7-86.3,26.7-132.2,26.7s-90.3-9-132.2-26.7c-40.4-17.1-76.7-41.6-107.9-72.8c-31.2-31.2-55.7-67.5-72.8-107.9
			C10,430.9,1,386.4,1,340.6s9-90.3,26.7-132.2c17.1-40.4,41.6-76.7,72.8-107.9c31.2-31.2,67.5-55.7,107.9-72.8
			C250.3,10,294.7,1,340.6,1 M340.6,0C152.5,0,0,152.5,0,340.6s152.5,340.6,340.6,340.6s340.6-152.5,340.6-340.6S528.6,0,340.6,0
			L340.6,0z"/>
	</g>
	<g>
		<path class="st0" d="M340.6,666.3c-87,0-168.8-33.9-230.4-95.4c-61.5-61.5-95.4-143.3-95.4-230.4s33.9-168.8,95.4-230.4
			s143.3-95.4,230.4-95.4s168.8,33.9,230.4,95.4c61.5,61.5,95.4,143.3,95.4,230.4s-33.9,168.8-95.4,230.4
			C509.4,632.4,427.6,666.3,340.6,666.3z"/>
		<path d="M340.6,15.3c43.9,0,86.5,8.6,126.6,25.6c38.7,16.4,73.5,39.8,103.4,69.7c29.9,29.9,53.3,64.7,69.7,103.4
			c17,40.1,25.6,82.7,25.6,126.6s-8.6,86.5-25.6,126.6c-16.4,38.7-39.8,73.5-69.7,103.4c-29.9,29.9-64.7,53.3-103.4,69.7
			c-40.1,17-82.7,25.6-126.6,25.6s-86.5-8.6-126.6-25.6c-38.7-16.4-73.5-39.8-103.4-69.7c-29.9-29.9-53.3-64.7-69.7-103.4
			c-17-40.1-25.6-82.7-25.6-126.6s8.6-86.5,25.6-126.6c16.4-38.7,39.8-73.5,69.7-103.4c29.9-29.9,64.7-53.3,103.4-69.7
			C254.1,23.9,296.6,15.3,340.6,15.3 M340.6,14.3c-180.2,0-326.3,146.1-326.3,326.3s146.1,326.3,326.3,326.3
			s326.3-146.1,326.3-326.3S520.8,14.3,340.6,14.3L340.6,14.3z"/>
	</g>
</g>
<g id="Ding">
	<g>
		<ellipse class="st0" cx="340.6" cy="330.6" rx="112.1" ry="142.9"/>
		<path d="M340.6,188.1c29.8,0,57.8,14.8,78.8,41.6c21.1,26.9,32.8,62.7,32.8,100.8s-11.6,73.9-32.8,100.8
			c-21.1,26.8-49.1,41.6-78.8,41.6s-57.8-14.8-78.8-41.6c-21.1-26.9-32.8-62.7-32.8-100.8s11.6-73.9,32.8-100.8
			C282.8,202.9,310.8,188.1,340.6,188.1 M340.6,187.1c-62.2,0-112.6,64.2-112.6,143.4S278.4,474,340.6,474s112.6-64.2,112.6-143.4
			S402.7,187.1,340.6,187.1L340.6,187.1z"/>
	</g>
	<g>
		<ellipse class="st0" cx="340.6" cy="330.6" rx="46.5" ry="59.4"/>
		<path d="M340.6,271.7c25.4,0,46,26.4,46,58.9s-20.6,58.9-46,58.9s-46-26.4-46-58.9S315.2,271.7,340.6,271.7 M340.6,270.7
			c-26,0-47,26.8-47,59.9s21,59.9,47,59.9c26,0,47-26.8,47-59.9S366.5,270.7,340.6,270.7L340.6,270.7z"/>
	</g>
</g>
<g id="tone--2_00000145775218030476129440000013639232169588449207_">
	<g>
		<path class="st0" d="M199.2,594.2c-17.2,0-34.7-6.2-49.3-17.5c-15.7-12.1-26.4-28.6-30.2-46.5c-3.8-17.9-0.2-35.1,10-48.4
			c10.8-14,28.1-22,47.6-22c17.2,0,34.7,6.2,49.3,17.5c32.3,24.9,41.3,67.5,20.2,94.9C236,586.2,218.7,594.2,199.2,594.2z"/>
		<path d="M177.3,459.4l0,1h0c17.1,0,34.5,6.2,49,17.4c15.6,12,26.2,28.4,30,46.3c3.8,17.8,0.3,34.8-9.9,47.9
			c-10.7,13.9-27.9,21.8-47.2,21.8c-17.1,0-34.5-6.2-49-17.4c-15.6-12-26.2-28.4-30-46.3c-3.8-17.8-0.3-34.8,9.9-47.9
			c10.7-13.9,27.9-21.8,47.2-21.8L177.3,459.4 M177.3,459.4c-19,0-36.6,7.5-48,22.2c-21.4,27.7-12.3,70.5,20.3,95.6
			c15.2,11.8,32.9,17.6,49.6,17.6c19,0,36.6-7.5,48-22.2c21.4-27.7,12.3-70.5-20.3-95.6C211.7,465.2,194,459.4,177.3,459.4
			L177.3,459.4z"/>
	</g>
	<g>
		<path class="st0" d="M192.5,561.6c-7.8,0-15.8-2.8-22.5-8c-14.6-11.3-18.9-30.2-9.5-42.3c4.7-6.1,12.3-9.5,20.8-9.5
			c7.8,0,15.8,2.8,22.5,8c7.1,5.5,12,12.9,13.8,20.9c1.8,8,0.3,15.6-4.2,21.4C208.7,558.2,201.1,561.6,192.5,561.6z"/>
		<path d="M181.3,501.3v1h0c7.7,0,15.6,2.8,22.2,7.9c14.4,11.1,18.6,29.8,9.4,41.6c-4.6,5.9-12,9.3-20.4,9.3
			c-7.7,0-15.6-2.8-22.2-7.9c-14.4-11.1-18.6-29.8-9.4-41.6c4.6-5.9,12-9.3,20.4-9.3L181.3,501.3 M181.3,501.3
			c-8.4,0-16.2,3.3-21.2,9.7c-9.5,12.3-5.2,31.6,9.6,43c7,5.4,15.2,8.1,22.8,8.1c8.4,0,16.2-3.3,21.2-9.7c9.5-12.3,5.2-31.6-9.6-43
			C197.1,503.9,188.9,501.3,181.3,501.3L181.3,501.3z"/>
	</g>
</g>
<g id="tone--4">
	<g>
		<path class="st0" d="M96.1,425.5c-28.4,0-53.6-23.7-60.1-56.4c-3.5-17.8-1-35.7,7.2-50.4c8.2-14.7,21-24.4,36.1-27.4
			c3.2-0.6,6.4-0.9,9.6-0.9c28.4,0,53.6,23.7,60.1,56.4c3.5,17.8,1,35.7-7.2,50.4c-8.2,14.7-21,24.4-36.1,27.4
			C102.6,425.2,99.3,425.5,96.1,425.5z"/>
		<path d="M88.9,290.8c13.4,0,26.8,5.6,37.6,15.7c11,10.2,18.8,24.6,22,40.3c7.2,36.5-12,71.1-42.9,77.2c-3.1,0.6-6.3,0.9-9.5,0.9
			c-13.4,0-26.8-5.6-37.6-15.7c-11-10.2-18.8-24.6-22-40.3c-3.5-17.7-0.9-35.5,7.2-50.1c8.1-14.6,20.8-24.2,35.7-27.1
			C82.6,291.1,85.8,290.8,88.9,290.8L88.9,290.8 M88.9,289.8c-3.2,0-6.5,0.3-9.7,1c-31.5,6.2-51,41.3-43.7,78.4
			c6.6,33.3,32.6,56.8,60.6,56.8c3.2,0,6.5-0.3,9.7-1c31.5-6.2,51-41.3,43.7-78.4C142.9,313.4,116.9,289.8,88.9,289.8L88.9,289.8z"
			/>
	</g>
	<g>
		<path class="st0" d="M93.5,383.5c-11.6,0-22-9.7-24.7-23.1c-1.4-7.3-0.4-14.7,3-20.7c3.4-6,8.6-10,14.8-11.2
			c1.3-0.3,2.6-0.4,3.9-0.4c11.6,0,22,9.7,24.7,23.1c1.4,7.3,0.4,14.7-3,20.7c-3.4,6-8.6,10-14.8,11.2
			C96.2,383.4,94.9,383.5,93.5,383.5z"/>
		<path d="M90.6,328.6L90.6,328.6c11.4,0,21.6,9.6,24.2,22.7c2.9,14.8-4.9,28.9-17.4,31.4c-1.3,0.2-2.6,0.4-3.8,0.4
			c-11.4,0-21.6-9.6-24.2-22.7c-1.4-7.2-0.4-14.4,2.9-20.4c3.3-5.9,8.4-9.8,14.4-11C88,328.7,89.3,328.6,90.6,328.6 M90.6,327.6
			c-1.3,0-2.7,0.1-4,0.4c-13.1,2.6-21.2,17.1-18.2,32.5c2.7,13.8,13.5,23.6,25.1,23.6c1.3,0,2.7-0.1,4-0.4
			c13.1-2.6,21.2-17.1,18.2-32.5C113,337.3,102.2,327.6,90.6,327.6L90.6,327.6z"/>
	</g>
</g>
<g id="tone--6">
	<g>
		<path class="st0" d="M127.1,246.7c-8,0-15.6-1.9-22.6-5.6c-12.2-6.5-21-17.8-24.7-31.8c-3.7-14-1.8-29.2,5.3-42.5
			c10.1-19.1,29.6-31.4,49.8-31.4c8,0,15.6,1.9,22.6,5.6c12.2,6.5,21,17.8,24.7,31.8c3.7,14,1.8,29.2-5.3,42.5
			C166.8,234.4,147.2,246.7,127.1,246.7z"/>
		<path d="M134.8,134.9v1c7.9,0,15.4,1.9,22.4,5.5c25.1,13.2,33.7,46.3,19.2,73.7c-5,9.5-12.4,17.5-21.3,23
			c-8.6,5.4-18.3,8.2-28,8.2c-7.9,0-15.4-1.9-22.4-5.5c-12.1-6.4-20.8-17.6-24.4-31.5c-3.6-13.9-1.8-28.9,5.2-42.2
			c5-9.5,12.4-17.5,21.3-23c8.6-5.4,18.3-8.2,28-8.2L134.8,134.9 M134.8,134.9c-19.8,0-39.6,11.7-50.2,31.7
			c-14.7,27.9-6,61.5,19.6,75c7.2,3.8,15,5.6,22.8,5.6c19.8,0,39.6-11.7,50.2-31.7c14.7-27.9,6-61.5-19.6-75
			C150.4,136.7,142.6,134.9,134.8,134.9L134.8,134.9z"/>
	</g>
	<g>
		<path class="st0" d="M129.6,208.9c-2.7,0-5.2-0.6-7.6-1.9c-4.1-2.2-7.1-6-8.3-10.7c-1.2-4.7-0.6-9.8,1.8-14.4
			c3.4-6.4,10-10.6,16.8-10.6c2.7,0,5.2,0.6,7.6,1.9c4.1,2.2,7.1,6,8.3,10.7c1.2,4.7,0.6,9.8-1.8,14.4
			C143,204.7,136.4,208.9,129.6,208.9z"/>
		<path d="M132.3,170.8v1c2.6,0,5.1,0.6,7.4,1.8c4,2.1,6.9,5.8,8.1,10.4c1.2,4.6,0.6,9.6-1.7,14c-3.3,6.3-9.7,10.3-16.3,10.3
			c-2.6,0-5.1-0.6-7.4-1.8c-8.3-4.4-11.1-15.3-6.3-24.4c3.3-6.3,9.7-10.3,16.3-10.3L132.3,170.8 M132.3,170.8
			c-6.8,0-13.6,4-17.2,10.9c-5.1,9.6-2,21.1,6.7,25.8c2.5,1.3,5.2,1.9,7.8,1.9c6.8,0,13.6-4,17.2-10.9c5.1-9.6,2-21.1-6.7-25.8
			C137.7,171.4,135,170.8,132.3,170.8L132.3,170.8z"/>
	</g>
</g>
<g id="tone--8">
	<g>
		<path class="st0" d="M261.1,134.4c-17.1,0-31.5-8.3-37.7-21.8c-9.3-20.3,3-45.8,27.3-57c7.4-3.4,15.5-5.2,23.3-5.2
			c17.1,0,31.5,8.3,37.7,21.8c9.3,20.3-3,45.8-27.3,57C277,132.6,268.9,134.4,261.1,134.4z"/>
		<path d="M274,49.9v1h0c16.9,0,31.2,8.2,37.2,21.5c9.2,20-3,45.3-27,56.3c-7.3,3.4-15.3,5.1-23.1,5.1c-16.9,0-31.2-8.2-37.2-21.5
			c-4.4-9.7-4.1-20.8,1-31.5c5.1-10.7,14.3-19.5,26-24.9c7.3-3.4,15.3-5.1,23.1-5.1L274,49.9 M274,49.9c-7.7,0-15.7,1.7-23.5,5.2
			c-24.6,11.3-36.9,37.1-27.5,57.6c6.4,14.1,21.4,22.1,38.1,22.1c7.7,0,15.7-1.7,23.5-5.2c24.6-11.3,36.9-37.1,27.5-57.6
			C305.7,57.9,290.7,49.9,274,49.9L274,49.9z"/>
	</g>
	<g>
		<path class="st0" d="M265,105.5c-5.4,0-9.9-2.6-11.9-6.8c-2.9-6.4,1-14.4,8.6-18c2.4-1.1,4.9-1.6,7.4-1.6c5.4,0,9.9,2.6,11.9,6.8
			c2.9,6.4-1,14.4-8.6,18C270,104.9,267.5,105.5,265,105.5z"/>
		<path d="M269.1,79.5L269.1,79.5c5.2,0,9.6,2.5,11.4,6.5c2.8,6.1-1,13.9-8.4,17.3c-2.3,1-4.8,1.6-7.2,1.6c-5.2,0-9.6-2.5-11.4-6.5
			c-2.8-6.1,1-13.9,8.4-17.3C264.3,80.1,266.7,79.5,269.1,79.5 M269.1,78.5c-2.5,0-5.1,0.5-7.6,1.7c-8,3.6-11.9,12-8.9,18.6
			c2.1,4.6,6.9,7.1,12.3,7.1c2.5,0,5.1-0.5,7.6-1.7c8-3.6,11.9-12,8.9-18.6C279.4,81.1,274.5,78.5,269.1,78.5L269.1,78.5z"/>
	</g>
</g>
<g id="tone--7">
	<g>
		<path class="st0" d="M436.2,151.3c-9.5,0-19.2-2.4-27.8-7c-27.2-14.4-38.7-46.3-25.5-71.2c8.5-16.1,25.9-26,45.3-26
			c9.5,0,19.2,2.4,27.8,7c13.2,7,23.1,18.2,27.9,31.7c4.8,13.4,4,27.5-2.4,39.5C473.1,141.3,455.7,151.3,436.2,151.3z"/>
		<path d="M428.2,46.5v1c9.5,0,19,2.4,27.6,6.9c27,14.2,38.3,45.9,25.3,70.5c-8.4,15.9-25.6,25.8-44.9,25.8c-9.5,0-19-2.4-27.6-6.9
			c-27-14.2-38.3-45.9-25.3-70.5c8.4-15.9,25.6-25.8,44.9-25.8L428.2,46.5 M428.2,46.5c-19.1,0-36.9,9.4-45.8,26.3
			c-13.3,25.2-1.8,57.3,25.7,71.9c9.1,4.8,18.7,7.1,28.1,7.1c19.1,0,36.9-9.4,45.8-26.3c13.3-25.2,1.8-57.3-25.7-71.9
			C447.2,48.8,437.5,46.5,428.2,46.5L428.2,46.5z"/>
	</g>
	<g>
		<path class="st0" d="M433.4,114.7c-2.9,0-5.7-0.7-8.3-2.1c-3.9-2.1-6.9-5.4-8.3-9.5c-1.4-4-1.2-8.2,0.7-11.8
			c2.5-4.8,7.7-7.7,13.5-7.7c2.9,0,5.7,0.7,8.3,2.1c8.1,4.3,11.5,13.8,7.6,21.2C444.4,111.7,439.2,114.7,433.4,114.7z"/>
		<path d="M431,84.1L431,84.1c2.8,0,5.6,0.7,8.1,2c7.9,4.2,11.2,13.4,7.4,20.5c-2.4,4.6-7.4,7.5-13.1,7.5c-2.8,0-5.6-0.7-8.1-2
			c-7.9-4.2-11.2-13.4-7.4-20.5C420.3,87,425.3,84.1,431,84.1 M431,83.1c-5.8,0-11.2,2.9-13.9,8c-4,7.7-0.5,17.5,7.8,21.9
			c2.8,1.5,5.7,2.2,8.6,2.2c5.8,0,11.2-2.9,13.9-8c4-7.7,0.5-17.5-7.8-21.9C436.8,83.8,433.8,83.1,431,83.1L431,83.1z"/>
	</g>
</g>
<g id="tone--5">
	<g>
		<path class="st0" d="M564.7,272.8c-22.4,0-42.7-17.2-49.3-41.8c-7.9-29.1,6.4-58.4,31.8-65.2c3.6-1,7.3-1.5,11-1.5
			c22.4,0,42.7,17.2,49.3,41.8c3.8,14.1,2.6,28.7-3.4,41c-6,12.3-16.1,20.9-28.4,24.2C572.1,272.3,568.4,272.8,564.7,272.8z"/>
		<path d="M558.1,163.8v1h0c10.5,0,21.2,4,30,11.4c9.1,7.6,15.6,18,18.9,30c7.8,28.8-6.3,57.8-31.4,64.6c-3.5,1-7.2,1.4-10.9,1.4
			c-10.5,0-21.2-4-30-11.4c-9.1-7.6-15.6-18-18.9-30c-3.8-14-2.6-28.4,3.4-40.7c5.9-12.2,15.9-20.7,28-24c3.5-1,7.2-1.4,10.9-1.4
			L558.1,163.8 M558.1,163.8c-3.7,0-7.4,0.5-11.1,1.5c-25.7,7-40.1,36.4-32.1,65.9c6.8,25.2,27.8,42.2,49.8,42.2
			c3.7,0,7.4-0.5,11.1-1.5c25.7-7,40.1-36.4,32.1-65.9C601.1,180.8,580.1,163.8,558.1,163.8L558.1,163.8z"/>
	</g>
	<g>
		<path class="st0" d="M562.9,242.8c-10,0-19-7.7-22-18.7c-3.5-13,2.8-26.1,14.2-29.1c1.6-0.4,3.2-0.7,4.9-0.7c10,0,19,7.7,22,18.7
			c1.7,6.3,1.2,12.8-1.5,18.3c-2.7,5.5-7.2,9.3-12.6,10.8C566.2,242.6,564.5,242.8,562.9,242.8z"/>
		<path d="M559.9,193.8v1h0c9.8,0,18.6,7.5,21.5,18.3c1.7,6.2,1.1,12.6-1.5,18c-2.6,5.4-7,9.1-12.3,10.5c-1.6,0.4-3.2,0.6-4.8,0.6
			c-9.8,0-18.6-7.5-21.5-18.3c-3.4-12.7,2.7-25.5,13.8-28.5c1.6-0.4,3.2-0.6,4.8-0.6L559.9,193.8 M559.9,193.8c-1.7,0-3.4,0.2-5,0.7
			c-11.6,3.1-18.1,16.5-14.5,29.7c3.1,11.4,12.6,19,22.5,19c1.7,0,3.4-0.2,5-0.7c11.6-3.1,18.1-16.5,14.5-29.7
			C579.3,201.5,569.9,193.8,559.9,193.8L559.9,193.8z"/>
	</g>
</g>
<g id="tone--3">
	<g>
		<path class="st0" d="M567.5,478.8c-5.6,0-11.1-0.9-16.4-2.7c-14.2-4.9-25.4-15.7-31.6-30.5c-6.2-14.8-6.5-31.9-1-48
			c9.2-26.7,32.3-44.7,57.5-44.7c5.6,0,11.1,0.9,16.4,2.7c14.2,4.9,25.4,15.7,31.6,30.5c6.2,14.8,6.5,31.9,1,48
			C615.8,460.9,592.7,478.8,567.5,478.8z"/>
		<path d="M576.1,352.4v1c5.5,0,11,0.9,16.2,2.7c29.1,10,43.6,44.9,32.3,77.9c-4.5,13.1-12.4,24.3-23,32.3
			c-10.2,7.8-22.3,12-34.1,12c-5.5,0-11-0.9-16.2-2.7c-29.1-10-43.6-44.9-32.3-77.9c4.5-13.1,12.4-24.3,23-32.3
			c10.2-7.8,22.3-12,34.1-12L576.1,352.4 M576.1,352.4c-24.6,0-48.6,17.6-58,45c-11.5,33.5,3.2,68.9,32.9,79.1
			c5.4,1.9,11,2.8,16.5,2.8c24.6,0,48.6-17.6,58-45c11.5-33.5-3.2-68.9-32.9-79.1C587.2,353.3,581.6,352.4,576.1,352.4L576.1,352.4z
			"/>
	</g>
	<g>
		<path class="st0" d="M569.8,444c-2.5,0-4.9-0.4-7.3-1.2c-13.1-4.5-19.6-20.2-14.5-35.1c4-11.8,14.6-20,25.7-20
			c2.5,0,4.9,0.4,7.3,1.2c13.1,4.5,19.6,20.2,14.5,35.1C591.5,435.8,580.9,444,569.8,444z"/>
		<path d="M573.7,387.2v1c2.4,0,4.8,0.4,7.1,1.2c12.9,4.4,19.2,19.9,14.2,34.5c-4,11.6-14.4,19.7-25.3,19.7c-2.4,0-4.8-0.4-7.1-1.2
			c-12.9-4.4-19.2-19.9-14.2-34.5c4-11.6,14.4-19.7,25.3-19.7L573.7,387.2 M573.7,387.2c-11.1,0-22,8-26.2,20.3
			c-5.2,15.1,1.5,31.1,14.9,35.7c2.5,0.8,5,1.2,7.5,1.2c11.1,0,22-8,26.2-20.3c5.2-15.1-1.5-31.1-14.9-35.7
			C578.7,387.6,576.2,387.2,573.7,387.2L573.7,387.2z"/>
	</g>
</g>
<g id="tone--1">
	<g>
		<path class="st0" d="M405.2,639c-38,0-66.8-15.7-73.4-40.1c-9.1-33.5,26.6-72.4,79.5-86.7c13.1-3.5,26.2-5.3,38.9-5.3
			c38,0,66.8,15.7,73.4,40.1c4.4,16.2-1.4,34.1-16.4,50.5c-15,16.4-37.4,29.3-63.1,36.2C431,637.2,417.9,639,405.2,639z"/>
		<path d="M450.2,507.4c37.8,0,66.4,15.6,72.9,39.7c9,33.2-26.5,71.8-79.1,86.1c-13,3.5-26.1,5.3-38.8,5.3
			c-37.8,0-66.4-15.6-72.9-39.7c-4.3-16,1.5-33.8,16.3-50c14.9-16.4,37.3-29.2,62.8-36.1C424.4,509.2,437.4,507.4,450.2,507.4
			L450.2,507.4 M450.2,506.4c-12.4,0-25.7,1.7-39.1,5.3c-53.2,14.4-89,53.5-79.8,87.3c6.8,25.3,36.9,40.5,73.9,40.5
			c12.4,0,25.7-1.7,39.1-5.3c53.2-14.4,89-53.5,79.8-87.3C517.2,521.6,487.2,506.4,450.2,506.4L450.2,506.4z"/>
	</g>
	<g>
		<path class="st0" d="M417.5,602.5c-17,0-29.9-7-32.9-17.9c-4.1-15,12-32.4,35.7-38.8c5.9-1.6,11.8-2.4,17.5-2.4
			c17,0,29.9,7,32.9,17.9c2,7.2-0.7,15.2-7.3,22.5c-6.7,7.4-16.8,13.2-28.4,16.3C429.1,601.7,423.2,602.5,417.5,602.5z"/>
		<path d="M437.8,542.9v1h0c16.8,0,29.5,6.9,32.4,17.5c1.9,7-0.7,14.9-7.2,22.1c-6.7,7.3-16.7,13-28.1,16.1
			c-5.8,1.6-11.7,2.4-17.4,2.4c-16.8,0-29.5-6.9-32.4-17.5c-1.9-7,0.7-14.9,7.2-22.1c6.7-7.3,16.7-13,28.1-16.1
			c5.8-1.6,11.7-2.4,17.4-2.4L437.8,542.9 M437.8,542.9c-5.6,0-11.6,0.8-17.6,2.4c-24,6.5-40.2,24.2-36.1,39.4
			c3.1,11.4,16.7,18.3,33.4,18.3c5.6,0,11.6-0.8,17.6-2.4c24-6.5,40.2-24.2,36.1-39.4C468.1,549.8,454.5,542.9,437.8,542.9
			L437.8,542.9z"/>
	</g>
</g>
</svg>
